<?xml version="1.0" encoding="utf-8"?>
<!-- Generator: Adobe Illustrator 26.1.0, SVG Export Plug-In . SVG Version: 6.00 Build 0)  -->
<svg version="1.1" id="Capa_1" xmlns="http://www.w3.org/2000/svg" xmlns:xlink="http://www.w3.org/1999/xlink" x="0px" y="0px"
	 viewBox="0 0 1080 1080" style="enable-background:new 0 0 1080 1080;" xml:space="preserve">
<style type="text/css">
	.st0{fill:#FFFFFF;}
</style>
<path class="st0" d="M979.8,260h-77H345.5l-7.8-50.6h0l-6.1-39.6l-0.6-3.8c-3.4-16.3-17.9-28.6-35.2-28.6H235h-84.5h-50.3
	c-19.9,0-36,16.1-36,36c0,19.9,16.1,36,36,36h132h19.5l7.5,50.6h0l68.2,460.5c0-0.1,0-0.2,0-0.3c2.1,17.8,17.3,31.7,35.7,31.7h6.9
	h38.7h1.9H447h329.4h38.3h38.7h38.3c19.9,0,36-16.1,36-36c0-19.9-16.1-36-36-36h-34.3h-4.1h-12h-26.7h-11.6h-26.7h-12h-38.3H554.8
	h-38.3h-5.9h-38.3H446h-37.2h-1.1l-7.5-50.6h60.2h26.5h239.1h32.8H790h13.1h26.1h6.7h1.7h26.8h2.7h39.2h8.4h26.8
	c18.3,0,33.4-13.7,35.6-31.4l0,0l2.6-20.6h0l34.8-272.7c0.7-2.8,1.1-5.7,1.1-8.8C1015.8,276.1,999.7,260,979.8,260z"/>
<ellipse transform="matrix(0.9732 -0.2298 0.2298 0.9732 -179.544 202.916)" class="st0" cx="781.6" cy="872.5" rx="70" ry="70"/>
<ellipse transform="matrix(0.9732 -0.2298 0.2298 0.9732 -187.6586 133.2232)" class="st0" cx="478.3" cy="872.5" rx="70" ry="70"/>
</svg>
