<?xml version="1.0" encoding="utf-8"?>
<!-- Generator: Adobe Illustrator 26.1.0, SVG Export Plug-In . SVG Version: 6.00 Build 0)  -->
<svg version="1.1" id="Capa_1" xmlns="http://www.w3.org/2000/svg" xmlns:xlink="http://www.w3.org/1999/xlink" x="0px" y="0px"
	 viewBox="0 0 564.3 145.7" style="enable-background:new 0 0 564.3 145.7;" xml:space="preserve">
<style type="text/css">
	.st0{fill:none;stroke:#000000;stroke-width:5;stroke-miterlimit:10;}
	.st1{font-family:'NunitoSans-BlackItalic';}
	.st2{font-size:112.7026px;}
	.st3{letter-spacing:3;}
	.st4{fill:none;stroke:url(#SVGID_1_);stroke-width:3;stroke-miterlimit:10;}
	.st5{fill:none;stroke:url(#SVGID_00000065770080259533275910000012840113697738487435_);stroke-width:3;stroke-miterlimit:10;}
	.st6{fill:none;stroke:url(#SVGID_00000170271207925443343190000016413130502018079907_);stroke-width:3;stroke-miterlimit:10;}
	.st7{fill:none;stroke:url(#SVGID_00000090995929597475774690000011750918218891796922_);stroke-width:3;stroke-miterlimit:10;}
	.st8{fill:none;stroke:url(#SVGID_00000036962203824421057770000016069472692039966855_);stroke-width:3;stroke-miterlimit:10;}
	.st9{fill:none;stroke:url(#SVGID_00000021102093693707210990000012998073455132348815_);stroke-width:3;stroke-miterlimit:10;}
	.st10{fill:#FFFFFF;}
	.st11{font-size:78.6877px;}
</style>
<g>
	<text transform="matrix(1 0 0 1 40.8137 90.5855)" class="st0 st1 st2 st3">ENERGY</text>
	<g>
		<linearGradient id="SVGID_1_" gradientUnits="userSpaceOnUse" x1="38.3137" y1="58.3814" x2="569.719" y2="58.3814">
			<stop  offset="0" style="stop-color:#F9D619"/>
			<stop  offset="1" style="stop-color:#DF9B0F"/>
		</linearGradient>
		<path class="st4" d="M107.4,27.1H71.1l-1.2,15.1h34l-1.2,15.9h-34l-1.4,16.5h36.4l-1.4,16H45.9l6.3-79.5h56.6L107.4,27.1z"/>
		
			<linearGradient id="SVGID_00000154391108069701823550000000864546155646718094_" gradientUnits="userSpaceOnUse" x1="38.3137" y1="58.3814" x2="569.719" y2="58.3814">
			<stop  offset="0" style="stop-color:#F9D619"/>
			<stop  offset="1" style="stop-color:#DF9B0F"/>
		</linearGradient>
		
			<path style="fill:none;stroke:url(#SVGID_00000154391108069701823550000000864546155646718094_);stroke-width:3;stroke-miterlimit:10;" d="
			M174.3,11.1h19.4l-6.3,79.5h-15.4L139.5,46l-3.7,44.6h-19.3l6.3-79.5H138L170.6,56L174.3,11.1z"/>
		
			<linearGradient id="SVGID_00000164504621482797904710000007615303847191203970_" gradientUnits="userSpaceOnUse" x1="38.3137" y1="58.3814" x2="569.719" y2="58.3814">
			<stop  offset="0" style="stop-color:#F9D619"/>
			<stop  offset="1" style="stop-color:#DF9B0F"/>
		</linearGradient>
		
			<path style="fill:none;stroke:url(#SVGID_00000164504621482797904710000007615303847191203970_);stroke-width:3;stroke-miterlimit:10;" d="
			M266.8,27.1h-36.3l-1.2,15.1h34L262,58.1h-34l-1.4,16.5h36.4l-1.4,16h-56.5l6.3-79.5h56.6L266.8,27.1z"/>
		
			<linearGradient id="SVGID_00000069366613293490388060000017913501421918943886_" gradientUnits="userSpaceOnUse" x1="38.3137" y1="58.3814" x2="569.719" y2="58.3814">
			<stop  offset="0" style="stop-color:#F9D619"/>
			<stop  offset="1" style="stop-color:#DF9B0F"/>
		</linearGradient>
		
			<path style="fill:none;stroke:url(#SVGID_00000069366613293490388060000017913501421918943886_);stroke-width:3;stroke-miterlimit:10;" d="
			M347.5,90.6H325l-12.5-25.4c-1.4-2.9-4-4.4-7.8-4.4h-6.2l-2.3,29.8h-20.4l6.2-79.5h38.7c8.3,0,14.8,2.1,19.5,6.4
			c4.7,4.2,7,9.9,7,17c0,7.1-1.7,12.8-5,16.9c-3.3,4.1-8.5,6.8-15.6,8c2.2,0.6,4,1.6,5.5,3c1.5,1.4,2.8,3.3,4,5.6L347.5,90.6z
			 M316.6,45.3c3.7,0,6.5-0.8,8.4-2.5c1.9-1.7,2.9-4,2.9-7.1c0-3-0.8-5.2-2.4-6.7c-1.6-1.5-4.1-2.2-7.5-2.2h-16.8l-1.4,18.5H316.6z"
			/>
		
			<linearGradient id="SVGID_00000085231073239260908620000017934818104682691753_" gradientUnits="userSpaceOnUse" x1="38.3137" y1="58.3814" x2="569.719" y2="58.3814">
			<stop  offset="0" style="stop-color:#F9D619"/>
			<stop  offset="1" style="stop-color:#DF9B0F"/>
		</linearGradient>
		
			<path style="fill:none;stroke:url(#SVGID_00000085231073239260908620000017934818104682691753_);stroke-width:3;stroke-miterlimit:10;" d="
			M432.8,45.7l-3,39.6c-3.9,2-8.5,3.6-13.8,4.7c-5.3,1.1-11,1.6-17.1,1.6c-8,0-14.9-1.6-20.7-4.7c-5.8-3.1-10.3-7.6-13.5-13.4
			c-3.2-5.8-4.7-12.6-4.7-20.5c0-8.6,1.8-16.2,5.3-22.7c3.5-6.5,8.5-11.5,15-15c6.5-3.5,14.1-5.3,22.8-5.3c12.2,0,21.9,2.9,29.2,8.7
			l-7.6,14.7c-3.5-2.6-6.8-4.4-10-5.5c-3.2-1.1-7-1.6-11.4-1.5c-7.2,0.2-12.8,2.6-16.6,7.3c-3.9,4.7-5.8,11.2-5.8,19.4
			c0,7.4,1.7,13,5.2,16.8c3.5,3.9,8.7,5.8,15.8,5.8c3.2,0,6.5-0.5,10.1-1.4l1.1-14.5h-14.1l1.2-14.2H432.8z"/>
		
			<linearGradient id="SVGID_00000175284613268467534960000002354458849208472748_" gradientUnits="userSpaceOnUse" x1="38.3137" y1="58.3814" x2="569.719" y2="58.3814">
			<stop  offset="0" style="stop-color:#F9D619"/>
			<stop  offset="1" style="stop-color:#DF9B0F"/>
		</linearGradient>
		
			<path style="fill:none;stroke:url(#SVGID_00000175284613268467534960000002354458849208472748_);stroke-width:3;stroke-miterlimit:10;" d="
			M525.8,11.1l-37,44.1L486,90.6h-20.7l2.8-35.5l-30-44h23l18.4,27.5L502,11.1H525.8z"/>
	</g>
</g>
<text transform="matrix(1 0 0 1 4.3882 139.2211)" class="st10 st1 st11">D E L I V E R Y</text>
</svg>
