<?xml version="1.0" encoding="utf-8"?>
<!-- Generator: Adobe Illustrator 26.1.0, SVG Export Plug-In . SVG Version: 6.00 Build 0)  -->
<svg version="1.1" id="Capa_3_copia" xmlns="http://www.w3.org/2000/svg" xmlns:xlink="http://www.w3.org/1999/xlink" x="0px"
	 y="0px" viewBox="0 0 1080 1080" style="enable-background:new 0 0 1080 1080;" xml:space="preserve">
<style type="text/css">
	.st0{fill:#FFFFFF;}
	.st1{fill:url(#SVGID_1_);}
</style>
<path class="st0" d="M821.8,377.6c-28.3-46.9-68.1-83.2-119.5-108.9c-18.7-9.4-38.4-17-59.1-22.9l-54.1,89.3
	c18.4,4.3,35.7,10.5,51.7,18.6c34.5,17.4,61.1,42.2,79.7,74.3c18.6,32.2,27.9,69.5,27.9,112s-9.3,79.8-27.9,112
	c-18.6,32.2-45.1,56.9-79.7,74.3c-34.5,17.4-74.5,26.1-119.9,26.1H408.4l-100.3,97.4h218.1c66.1,0,124.8-12.8,176.1-38.5
	c51.3-25.7,91.2-61.9,119.5-108.9c28.3-46.9,42.5-101,42.5-162.4S850.1,424.5,821.8,377.6z"/>
<linearGradient id="SVGID_1_" gradientUnits="userSpaceOnUse" x1="423.7556" y1="834.0762" x2="418.5746" y2="214.275">
	<stop  offset="0" style="stop-color:#F39200"/>
	<stop  offset="1" style="stop-color:#FCEA10"/>
</linearGradient>
<polygon class="st1" points="628.1,465.5 448.2,465.5 590.8,230.2 450.1,230.2 234.2,582.4 214.2,582.4 214.2,582.4 394.2,582.4 
	232.2,849.8 "/>
</svg>
